<?xml version="1.0" encoding="UTF-8" standalone="no"?>
<svg
   viewBox="0 0 352.60001 254.98501"
   version="1.1"
   id="svg2"
   sodipodi:docname="Moodle-M.svg"
   width="352.60001"
   height="254.985"
   inkscape:version="1.4.2 (ebf0e940d0, 2025-05-08)"
   xmlns:inkscape="http://www.inkscape.org/namespaces/inkscape"
   xmlns:sodipodi="http://sodipodi.sourceforge.net/DTD/sodipodi-0.dtd"
   xmlns="http://www.w3.org/2000/svg"
   xmlns:svg="http://www.w3.org/2000/svg">
  <defs
     id="defs2" />
  <sodipodi:namedview
     id="namedview2"
     pagecolor="#ffffff"
     bordercolor="#000000"
     borderopacity="0.25"
     inkscape:showpageshadow="false"
     inkscape:pageopacity="0.0"
     inkscape:pagecheckerboard="0"
     inkscape:deskcolor="#d1d1d1"
     inkscape:zoom="0.82949459"
     inkscape:cx="615.435"
     inkscape:cy="103.07481"
     inkscape:window-width="1920"
     inkscape:window-height="1048"
     inkscape:window-x="0"
     inkscape:window-y="0"
     inkscape:window-maximized="1"
     inkscape:current-layer="svg2"
     inkscape:antialias-rendering="false"
     showborder="false"
     borderlayer="false" />
  <path
     fill="#f98012"
     d="m 289.61,254.985 v -108.26 c 0,-22.62667 -9.33333,-33.94333 -28,-33.95 -18.66667,-0.007 -28.02,11.31 -28.06,33.95 v 108.26 H 178.4 v -108.26 c 0,-22.62667 -9.19,-33.94333 -27.57,-33.95 -18.7,0 -28.03333,11.31667 -28,33.95 v 108.26 H 67.67 v -114.65 c 0,-23.62 8.2,-41.49667 24.6,-53.63 14.44,-10.83333 33.96,-16.25 58.56,-16.25 24.94,0 43.31333,6.39667 55.12,19.19 10.17333,-12.79333 28.71333,-19.19 55.62,-19.19 24.6,0 44.11333,5.41667 58.54,16.25 16.4,12.12667 24.60333,30.00333 24.61,53.63 v 114.65 z m 62.99,-90.63 c -352.6,-219.14 -352.6,-219.14 0,0 z"
     id="path1"
     sodipodi:nodetypes="csscccsccccscscscccccc" />
  <path
     fill="#333333"
     d="m 174.74,62.115 54.74,-40 -0.7,-2.44 C 130,31.785 85.08,40.365 0,89.685 l 0.79,2.24 6.76,0.07 c -0.62,6.81 -1.7,23.64 -0.32,48.95 -9.44,27.32 -0.24,45.88 8.4,66.07 1.37,-21 1.23,-44 -5.22,-66.89 -1.35,-25.14 -0.24,-41.67 0.37,-48.1 l 56.4,0.54 a 258,258 0 0 0 1.67,33.06 c 50.4,17.71 101.09,-0.06 128,-43.72 -7.47,-8.37 -22.11,-19.79 -22.11,-19.79 z"
     id="path2" />
</svg>
